<svg width="1024" height="1024" viewBox="0 0 1024 1024" fill="none" xmlns="http://www.w3.org/2000/svg">
  <!-- Background Rounded Rect (macOS App Icon Shape) -->
  <rect x="128" y="128" width="768" height="768" rx="170" fill="url(#bg_gradient)" />
  
  <!-- Subtle Shadow -->
  <rect x="128" y="128" width="768" height="768" rx="170" fill="black" fill-opacity="0.2" filter="url(#shadow)" />

  <!-- Document Stack -->
  <!-- Bottom Paper -->
  <rect x="340" y="300" width="360" height="460" rx="20" fill="white" fill-opacity="0.1" stroke="white" stroke-opacity="0.2" stroke-width="2" transform="rotate(-5, 520, 530)" />
  
  <!-- Middle Paper -->
  <rect x="330" y="290" width="360" height="460" rx="20" fill="white" fill-opacity="0.15" stroke="white" stroke-opacity="0.3" stroke-width="2" transform="rotate(-2, 510, 520)" />

  <!-- Top Paper (Glassmorphism Effect) -->
  <rect x="320" y="280" width="384" height="464" rx="24" fill="url(#glass_gradient)" fill-opacity="0.8" stroke="white" stroke-opacity="0.4" stroke-width="3" />
  
  <!-- Lightning Bolt (Velocity) -->
  <path d="M540 380L420 540H520L480 700L600 540H500L540 380Z" fill="url(#bolt_gradient)" filter="url(#glow)" />

  <!-- Glossy Overlay -->
  <path d="M128 298C128 204.116 204.116 128 298 128H726C819.884 128 896 204.116 896 298V320C896 320 600 450 128 320V298Z" fill="white" fill-opacity="0.05" />

  <defs>
    <linearGradient id="bg_gradient" x1="128" y1="128" x2="896" y2="896" gradientUnits="userSpaceOnUse">
      <stop stop-color="#1A1C2E" />
      <stop offset="1" stop-color="#0A0B14" />
    </linearGradient>
    
    <linearGradient id="glass_gradient" x1="320" y1="280" x2="704" y2="744" gradientUnits="userSpaceOnUse">
      <stop stop-color="white" stop-opacity="0.2" />
      <stop offset="1" stop-color="white" stop-opacity="0.05" />
    </linearGradient>

    <linearGradient id="bolt_gradient" x1="420" y1="380" x2="600" y2="700" gradientUnits="userSpaceOnUse">
      <stop stop-color="#00F2FF" />
      <stop offset="1" stop-color="#7000FF" />
    </linearGradient>

    <filter id="shadow" x="0" y="0" width="1024" height="1024" filterUnits="userSpaceOnUse" color-interpolation-filters="sRGB">
      <feFlood flood-opacity="0" result="BackgroundImageFix" />
      <feColorMatrix in="SourceAlpha" type="matrix" values="0 0 0 0 0 0 0 0 0 0 0 0 0 0 0 0 0 0 127 0" result="hardAlpha" />
      <feOffset dy="20" />
      <feGaussianBlur stdDeviation="30" />
      <feComposite in2="hardAlpha" operator="out" />
      <feColorMatrix type="matrix" values="0 0 0 0 0 0 0 0 0 0 0 0 0 0 0 0 0 0 0.5 0" />
      <feBlend mode="normal" in2="BackgroundImageFix" result="effect1_dropShadow" />
      <feBlend mode="normal" in="SourceGraphic" in2="effect1_dropShadow" result="shape" />
    </filter>

    <filter id="glow" x="380" y="340" width="260" height="400" filterUnits="userSpaceOnUse" color-interpolation-filters="sRGB">
      <feGaussianBlur stdDeviation="15" result="blur" />
      <feComposite in="blur" in2="SourceGraphic" operator="over" />
    </filter>
  </defs>
</svg>
